<?xml version="1.0" encoding="UTF-8" standalone="no"?>
<svg
   xmlns:dc="http://purl.org/dc/elements/1.1/"
   xmlns:cc="http://creativecommons.org/ns#"
   xmlns:rdf="http://www.w3.org/1999/02/22-rdf-syntax-ns#"
   xmlns:svg="http://www.w3.org/2000/svg"
   xmlns="http://www.w3.org/2000/svg"
   xmlns:sodipodi="http://sodipodi.sourceforge.net/DTD/sodipodi-0.dtd"
   xmlns:inkscape="http://www.inkscape.org/namespaces/inkscape"
   width="512.0px"
   height="512.0px"
   viewBox="0 0 512.0 512.0"
   version="1.1"
   id="SVGRoot"
   sodipodi:docname="icon.svg"
   inkscape:version="1.0.1 (3bc2e813f5, 2020-09-07)">
  <defs
     id="defs18" />
  <sodipodi:namedview
     id="base"
     pagecolor="#ffffff"
     bordercolor="#666666"
     borderopacity="1.0"
     inkscape:pageopacity="0.0"
     inkscape:pageshadow="2"
     inkscape:zoom="0.98994949"
     inkscape:cx="310.14513"
     inkscape:cy="247.54944"
     inkscape:document-units="px"
     inkscape:current-layer="layer1"
     inkscape:document-rotation="0"
     showgrid="true"
     inkscape:window-width="1624"
     inkscape:window-height="997"
     inkscape:window-x="38"
     inkscape:window-y="38"
     inkscape:window-maximized="0">
    <inkscape:grid
       type="xygrid"
       id="grid27" />
  </sodipodi:namedview>
  <metadata
     id="metadata21">
    <rdf:RDF>
      <cc:Work
         rdf:about="">
        <dc:format>image/svg+xml</dc:format>
        <dc:type
           rdf:resource="http://purl.org/dc/dcmitype/StillImage" />
        <dc:title></dc:title>
      </cc:Work>
    </rdf:RDF>
  </metadata>
  <g
     inkscape:label="Layer 1"
     inkscape:groupmode="layer"
     id="layer1">
    <text
       xml:space="preserve"
       style="font-style:normal;font-weight:normal;font-size:66.6667px;line-height:1.25;font-family:sans-serif;fill:#000000;fill-opacity:1;stroke:none"
       x="258.83459"
       y="294.75638"
       id="text36"><tspan
         sodipodi:role="line"
         id="tspan34"
         x="258.83459"
         y="294.75638"
         style="font-size:66.6667px;text-align:center;text-anchor:middle">Audio</tspan><tspan
         sodipodi:role="line"
         x="258.83459"
         y="378.08975"
         id="tspan89"
         style="font-size:66.6667px;text-align:center;text-anchor:middle">Format</tspan><tspan
         sodipodi:role="line"
         x="258.83459"
         y="461.42313"
         id="tspan91"
         style="font-size:66.6667px;text-align:center;text-anchor:middle">Extractor</tspan></text>
    <g
       id="g72"
       transform="translate(11.193,24.417)">
      <path
         d="m 398.333,41.539 c 0,0 -2.91,-20.443 -11.846,-29.447 -11.33,-11.813 -24.035,-11.873 -29.86,-12.566 -41.7,-3 -104.25,-3 -104.25,-3 h -0.13 c 0,0 -62.555,0 -104.255,3 -5.826,0.693 -18.523,0.753 -29.86,12.566 -8.933,9.004 -11.84,29.447 -11.84,29.447 0,0 -2.983,24.003 -2.983,48.009 v 22.507 c 0,24.006 2.983,48.013 2.983,48.013 0,0 2.907,20.44 11.84,29.446 11.337,11.817 26.23,11.44 32.86,12.677 23.84,2.28 101.315,2.983 101.315,2.983 0,0 62.62,-0.094 104.32,-3.093 5.824,-0.694 18.527,-0.75 29.857,-12.567 8.936,-9.006 11.846,-29.446 11.846,-29.446 0,0 2.98,-24.007 2.98,-48.013 V 89.548 c 0,-24.006 -2.98,-48.01 -2.98,-48.01"
         fill="#cd201f"
         id="path60" />
      <g
         id="g64"
         transform="translate(-118.922,-4.161)" />
      <g
         fill="#ffffff"
         id="g70"
         transform="translate(-100,-4.161)">
        <path
           d="m 440.413,96.647 c 0,-9.33 2.557,-11.874 8.59,-11.874 5.99,0 8.374,2.777 8.374,11.997 v 10.893 l -16.964,0.02 z m 35.96,25.986 -0.003,-20.4 c 0,-10.656 -2.1,-18.456 -5.88,-23.5 -5.06,-6.823 -12.253,-10.436 -21.317,-10.436 -9.226,0 -16.42,3.613 -21.643,10.436 -3.84,5.044 -6.076,13.28 -6.076,23.943 v 34.927 c 0,10.596 2.46,18.013 6.296,23.003 5.227,6.813 12.42,10.216 21.87,10.216 9.44,0 16.853,-3.566 21.85,-10.81 2.2,-3.196 3.616,-6.82 4.226,-10.823 0.164,-1.81 0.64,-5.933 0.64,-11.753 v -2.827 h -18.96 c 0,7.247 0.037,11.557 -0.133,12.54 -1.033,4.834 -3.623,7.25 -8.07,7.25 -6.203,0 -8.826,-4.636 -8.76,-13.843 v -17.923 z m -85.86,17.964 c 0,9.98 -2.353,13.806 -7.563,13.806 -2.973,0 -6.4,-1.53 -9.423,-4.553 l 0.02,-60.523 c 3.02,-2.98 6.43,-4.55 9.403,-4.55 5.21,0 7.563,2.93 7.563,12.91 z m 2.104,-72.453 c -6.647,0 -13.253,4.087 -19.09,11.27 l 0.02,-43.603 H 355.584 V 169.54 h 17.963 l 0.027,-10.05 c 6.036,7.47 12.62,11.333 19.043,11.333 7.193,0 12.45,-3.85 14.863,-11.267 1.203,-4.226 1.993,-10.733 1.993,-19.956 V 99.684 c 0,-9.447 -1.21,-15.907 -2.416,-19.917 -2.41,-7.466 -7.247,-11.623 -14.44,-11.623 M 340.618,169.537 H 321.662 V 158.56 c -7.193,8.24 -13.283,12.4 -19.926,12.4 -5.827,0 -9.877,-2.747 -11.9,-7.717 -1.234,-3.02 -2.107,-7.736 -2.107,-14.663 V 69.744 h 18.96 v 80.833 c 0.443,2.796 1.633,3.823 4.043,3.823 3.63,0 6.913,-3.153 10.93,-8.817 V 69.744 h 18.957 v 99.793 z"
           id="path66" />
        <path
           d="M 268.763,169.537 H 248.807 V 54.77 H 227.851 V 35.835 l 62.869,-0.024 v 18.96 h -21.957 z"
           id="path68" />
      </g>
    </g>
  </g>
</svg>
